
<global>
amp_veltrack=0
ampeg_release=0.55
</global>

<group>
group_label=PP
seq_length=1
seq_position=1
xf_cccurve=gain
xfin_hicc1=42
xfout_hicc1=85
xfout_locc1=42

<region>
hikey=g#4
hivel=127
lokey=g4
loop_end=240005
loop_mode=loop_continuous
loop_start=85521
loop_xfade=38621
lovel=0
offset=2405
pitch_keycenter=g#4
sample=Violas_trill_perf5th_PP_G#4.opus
</region>

<region>
hikey=g#3
hivel=127
lokey=g3
loop_end=243290
loop_mode=loop_continuous
loop_start=86691
loop_xfade=39149
lovel=0
offset=9141
pitch_keycenter=g#3
sample=Violas_trill_perf5th_PP_G#3.opus
</region>

<region>
hikey=f#4
hivel=127
lokey=f4
loop_end=225842
loop_mode=loop_continuous
loop_start=80474
loop_xfade=36342
lovel=0
offset=1125
pitch_keycenter=f#4
sample=Violas_trill_perf5th_PP_F#4.opus
</region>

<region>
hikey=f#3
hivel=127
lokey=f3
loop_end=227941
loop_mode=loop_continuous
loop_start=81222
loop_xfade=36679
lovel=0
offset=578
pitch_keycenter=f#3
sample=Violas_trill_perf5th_PP_F#3.opus
</region>

<region>
hikey=F#5
hivel=127
lokey=d#5
loop_end=271580
loop_mode=loop_continuous
loop_start=96772
loop_xfade=43702
lovel=0
offset=6751
pitch_keycenter=E5
sample=Violas_trill_perf5th_PP_E5.opus
</region>

<region>
hikey=e4
hivel=127
lokey=d#4
loop_end=232868
loop_mode=loop_continuous
loop_start=82978
loop_xfade=37472
lovel=0
offset=2607
pitch_keycenter=e4
sample=Violas_trill_perf5th_PP_E4.opus
</region>

<region>
hikey=e3
hivel=127
lokey=d#3
loop_end=254212
loop_mode=loop_continuous
loop_start=90583
loop_xfade=40907
lovel=0
offset=1606
pitch_keycenter=e3
sample=Violas_trill_perf5th_PP_E3.opus
</region>

<region>
hikey=d5
hivel=127
lokey=c#5
loop_end=282471
loop_mode=loop_continuous
loop_start=100653
loop_xfade=45454
lovel=0
offset=9795
pitch_keycenter=d5
sample=Violas_trill_perf5th_PP_D5.opus
</region>

<region>
hikey=d4
hivel=127
lokey=c#4
loop_end=235761
loop_mode=loop_continuous
loop_start=84009
loop_xfade=37938
lovel=0
offset=2012
pitch_keycenter=d4
sample=Violas_trill_perf5th_PP_D4.opus
</region>

<region>
hikey=d3
hivel=127
lokey=c#3
loop_end=235035
loop_mode=loop_continuous
loop_start=83750
loop_xfade=37821
lovel=0
pitch_keycenter=d3
sample=Violas_trill_perf5th_PP_D3.opus
</region>

<region>
hikey=c5
hivel=127
lokey=b4
loop_end=247965
loop_mode=loop_continuous
loop_start=88357
loop_xfade=39902
lovel=0
offset=1236
pitch_keycenter=c5
sample=Violas_trill_perf5th_PP_C5.opus
</region>

<region>
hikey=c4
hivel=127
lokey=b3
loop_end=274809
loop_mode=loop_continuous
loop_start=97923
loop_xfade=44221
lovel=0
offset=930
pitch_keycenter=c4
sample=Violas_trill_perf5th_PP_C4.opus
</region>

<region>
hivel=127
key=c3
loop_end=250473
loop_mode=loop_continuous
loop_start=89251
loop_xfade=40305
lovel=0
offset=2162
sample=Violas_trill_perf5th_PP_C3.opus
</region>

<region>
hikey=a#4
hivel=127
lokey=a4
loop_end=232607
loop_mode=loop_continuous
loop_start=82885
loop_xfade=37430
lovel=0
offset=624
pitch_keycenter=a#4
sample=Violas_trill_perf5th_PP_A#4.opus
</region>

<region>
hikey=a#3
hivel=127
lokey=a3
loop_end=233560
loop_mode=loop_continuous
loop_start=83224
loop_xfade=37584
lovel=0
offset=722
pitch_keycenter=a#3
sample=Violas_trill_perf5th_PP_A#3.opus
</region>
</group>

<group>
group_label=MF
seq_length=1
seq_position=1
xf_cccurve=gain
xfin_hicc1=85
xfin_locc1=42
xfout_hicc1=127
xfout_locc1=85

<region>
hikey=g#4
hivel=127
lokey=g4
loop_end=226989
loop_mode=loop_continuous
loop_start=80883
loop_xfade=36526
lovel=0
pitch_keycenter=g#4
sample=Violas_trill_perf5th_MF_G#4.opus
</region>

<region>
hikey=g#3
hivel=127
lokey=g3
loop_end=228024
loop_mode=loop_continuous
loop_start=81252
loop_xfade=36693
lovel=0
pitch_keycenter=g#3
sample=Violas_trill_perf5th_MF_G#3.opus
</region>

<region>
hikey=f#4
hivel=127
lokey=f4
loop_end=226180
loop_mode=loop_continuous
loop_start=80595
loop_xfade=36396
lovel=0
pitch_keycenter=f#4
sample=Violas_trill_perf5th_MF_F#4.opus
</region>

<region>
hikey=f#3
hivel=127
lokey=f3
loop_end=228450
loop_mode=loop_continuous
loop_start=81403
loop_xfade=36761
lovel=0
offset=72
pitch_keycenter=f#3
sample=Violas_trill_perf5th_MF_F#3.opus
</region>

<region>
hikey=F#5
hivel=127
lokey=d#5
loop_end=234043
loop_mode=loop_continuous
loop_start=83396
loop_xfade=37661
lovel=0
offset=983
pitch_keycenter=E5
sample=Violas_trill_perf5th_MF_E5.opus
</region>

<region>
hikey=e4
hivel=127
lokey=d#4
loop_end=248522
loop_mode=loop_continuous
loop_start=88556
loop_xfade=39991
lovel=0
offset=854
pitch_keycenter=e4
sample=Violas_trill_perf5th_MF_E4.opus
</region>

<region>
hikey=e3
hivel=127
lokey=d#3
loop_end=233116
loop_mode=loop_continuous
loop_start=83066
loop_xfade=37512
lovel=0
offset=269
pitch_keycenter=e3
sample=Violas_trill_perf5th_MF_E3.opus
</region>

<region>
hikey=d5
hivel=127
lokey=c#5
loop_end=258610
loop_mode=loop_continuous
loop_start=92151
loop_xfade=41614
lovel=0
offset=3623
pitch_keycenter=d5
sample=Violas_trill_perf5th_MF_D5.opus
</region>

<region>
hikey=d4
hivel=127
lokey=c#4
loop_end=222502
loop_mode=loop_continuous
loop_start=79284
loop_xfade=35804
lovel=0
offset=1693
pitch_keycenter=d4
sample=Violas_trill_perf5th_MF_D4.opus
</region>

<region>
hikey=d3
hivel=127
lokey=c#3
loop_end=226561
loop_mode=loop_continuous
loop_start=80730
loop_xfade=36457
lovel=0
offset=178
pitch_keycenter=d3
sample=Violas_trill_perf5th_MF_D3.opus
</region>

<region>
hikey=c5
hivel=127
lokey=b4
loop_end=276221
loop_mode=loop_continuous
loop_start=98426
loop_xfade=44448
lovel=0
offset=3731
pitch_keycenter=c5
sample=Violas_trill_perf5th_MF_C5.opus
</region>

<region>
hikey=c4
hivel=127
lokey=b3
loop_end=256503
loop_mode=loop_continuous
loop_start=91400
loop_xfade=41275
lovel=0
offset=993
pitch_keycenter=c4
sample=Violas_trill_perf5th_MF_C4.opus
</region>

<region>
hivel=127
key=c3
loop_end=227751
loop_mode=loop_continuous
loop_start=81154
loop_xfade=36649
lovel=0
offset=1729
sample=Violas_trill_perf5th_MF_C3.opus
</region>

<region>
hikey=a#4
hivel=127
lokey=a4
loop_end=220447
loop_mode=loop_continuous
loop_start=78552
loop_xfade=35473
lovel=0
offset=409
pitch_keycenter=a#4
sample=Violas_trill_perf5th_MF_A#4.opus
</region>

<region>
hikey=a#3
hivel=127
lokey=a3
loop_end=237438
loop_mode=loop_continuous
loop_start=84606
loop_xfade=38208
lovel=0
offset=560
pitch_keycenter=a#3
sample=Violas_trill_perf5th_MF_A#3.opus
</region>
</group>

<group>
group_label=FF
seq_length=1
seq_position=1
xf_cccurve=gain
xfin_hicc1=127
xfin_locc1=85
xfout_hicc1=127
xfout_locc1=127

<region>
hikey=g#4
hivel=127
lokey=g4
loop_end=231389
loop_mode=loop_continuous
loop_start=82451
loop_xfade=37234
lovel=0
pitch_keycenter=g#4
sample=Violas_trill_perf5th_FF_G#4.opus
</region>

<region>
hikey=g#3
hivel=127
lokey=g3
loop_end=229038
loop_mode=loop_continuous
loop_start=81613
loop_xfade=36856
lovel=0
pitch_keycenter=g#3
sample=Violas_trill_perf5th_FF_G#3.opus
</region>

<region>
hikey=f#4
hivel=127
lokey=f4
loop_end=231602
loop_mode=loop_continuous
loop_start=82527
loop_xfade=37268
lovel=0
offset=306
pitch_keycenter=f#4
sample=Violas_trill_perf5th_FF_F#4.opus
</region>

<region>
hikey=f#3
hivel=127
lokey=f3
loop_end=223502
loop_mode=loop_continuous
loop_start=79640
loop_xfade=35965
lovel=0
pitch_keycenter=f#3
sample=Violas_trill_perf5th_FF_F#3.opus
</region>

<region>
hikey=F#5
hivel=127
lokey=d#5
loop_end=227584
loop_mode=loop_continuous
loop_start=81095
loop_xfade=36622
lovel=0
offset=938
pitch_keycenter=E5
sample=Violas_trill_perf5th_FF_E5.opus
</region>

<region>
hikey=e4
hivel=127
lokey=d#4
loop_end=226899
loop_mode=loop_continuous
loop_start=80851
loop_xfade=36512
lovel=0
offset=551
pitch_keycenter=e4
sample=Violas_trill_perf5th_FF_E4.opus
</region>

<region>
hikey=e3
hivel=127
lokey=d#3
loop_end=235731
loop_mode=loop_continuous
loop_start=83998
loop_xfade=37933
lovel=0
offset=119
pitch_keycenter=e3
sample=Violas_trill_perf5th_FF_E3.opus
</region>

<region>
hikey=d5
hivel=127
lokey=c#5
loop_end=233005
loop_mode=loop_continuous
loop_start=83027
loop_xfade=37494
lovel=0
offset=2807
pitch_keycenter=d5
sample=Violas_trill_perf5th_FF_D5.opus
</region>

<region>
hikey=d4
hivel=127
lokey=c#4
loop_end=229416
loop_mode=loop_continuous
loop_start=81748
loop_xfade=36917
lovel=0
pitch_keycenter=d4
sample=Violas_trill_perf5th_FF_D4.opus
</region>

<region>
hikey=d3
hivel=127
lokey=c#3
loop_end=226376
loop_mode=loop_continuous
loop_start=80664
loop_xfade=36428
lovel=0
offset=348
pitch_keycenter=d3
sample=Violas_trill_perf5th_FF_D3.opus
</region>

<region>
hikey=c5
hivel=127
lokey=b4
loop_end=239568
loop_mode=loop_continuous
loop_start=85365
loop_xfade=38550
lovel=0
offset=772
pitch_keycenter=c5
sample=Violas_trill_perf5th_FF_C5.opus
</region>

<region>
hikey=c4
hivel=127
lokey=b3
loop_end=245310
loop_mode=loop_continuous
loop_start=87411
loop_xfade=39474
lovel=0
offset=1546
pitch_keycenter=c4
sample=Violas_trill_perf5th_FF_C4.opus
</region>

<region>
hivel=127
key=c3
loop_end=226877
loop_mode=loop_continuous
loop_start=80843
loop_xfade=36508
lovel=0
offset=105
sample=Violas_trill_perf5th_FF_C3.opus
</region>

<region>
hikey=a#4
hivel=127
lokey=a4
loop_end=234704
loop_mode=loop_continuous
loop_start=83632
loop_xfade=37768
lovel=0
pitch_keycenter=a#4
sample=Violas_trill_perf5th_FF_A#4.opus
</region>

<region>
hikey=a#3
hivel=127
lokey=a3
loop_end=231116
loop_mode=loop_continuous
loop_start=82353
loop_xfade=37190
lovel=0
offset=593
pitch_keycenter=a#3
sample=Violas_trill_perf5th_FF_A#3.opus
</region>
</group>